<?xml version="1.0" encoding="UTF-8"?>
<svg width="1535px" height="1136px" viewBox="0 0 1535 1136" version="1.1" xmlns="http://www.w3.org/2000/svg" xmlns:xlink="http://www.w3.org/1999/xlink">
    <title>Group 366</title>
    <g id="Anasayfa" stroke="none" stroke-width="1" fill="none" fill-rule="evenodd" opacity="0.134799049">
        <g id="felixo-home-page-dark" transform="translate(48.000000, -3500.000000)" fill="#00A651">
            <g id="Group-365" transform="translate(-48.000000, 3500.753800)">
                <g id="Group">
                    <g id="Group-2" transform="translate(1315.000000, 0.000000)">
                        <path d="M5.21550163,2.60775 C5.21550163,4.04775 4.04775126,5.2155 2.60700081,5.2155 C1.16775036,5.2155 0,4.04775 0,2.60775 C0,1.16775 1.16775036,0 2.60700081,0 C4.04775126,0 5.21550163,1.16775 5.21550163,2.60775" id="Fill-97"></path>
                        <path d="M26.6601083,2.60775 C26.6601083,4.04775 25.492358,5.2155 24.0523575,5.2155 C22.6123571,5.2155 21.4446067,4.04775 21.4446067,2.60775 C21.4446067,1.16775 22.6123571,0 24.0523575,0 C25.492358,0 26.6601083,1.16775 26.6601083,2.60775" id="Fill-99"></path>
                        <path d="M48.104715,2.60775 C48.104715,4.04775 46.9369647,5.2155 45.4969642,5.2155 C44.0577138,5.2155 42.8899634,4.04775 42.8899634,2.60775 C42.8899634,1.16775 44.0577138,0 45.4969642,0 C46.9369647,0 48.104715,1.16775 48.104715,2.60775" id="Fill-101"></path>
                        <path d="M69.5499967,2.60775 C69.5499967,4.04775 68.3822464,5.2155 66.9414959,5.2155 C65.5022455,5.2155 64.3344951,4.04775 64.3344951,2.60775 C64.3344951,1.16775 65.5022455,0 66.9414959,0 C68.3822464,0 69.5499967,1.16775 69.5499967,2.60775" id="Fill-103"></path>
                        <path d="M90.9946034,2.60775 C90.9946034,4.04775 89.8268531,5.2155 88.3868526,5.2155 C86.9476022,5.2155 85.7798518,4.04775 85.7798518,2.60775 C85.7798518,1.16775 86.9476022,0 88.3868526,0 C89.8268531,0 90.9946034,1.16775 90.9946034,2.60775" id="Fill-105"></path>
                        <path d="M112.439885,2.60775 C112.439885,4.04775 111.272135,5.2155 109.831384,5.2155 C108.392134,5.2155 107.224384,4.04775 107.224384,2.60775 C107.224384,1.16775 108.392134,0 109.831384,0 C111.272135,0 112.439885,1.16775 112.439885,2.60775" id="Fill-107"></path>
                        <path d="M5.21550163,21.278325 C5.21550163,22.718325 4.04775126,23.886075 2.60700081,23.886075 C1.16775036,23.886075 0,22.718325 0,21.278325 C0,19.838325 1.16775036,18.670575 2.60700081,18.670575 C4.04775126,18.670575 5.21550163,19.838325 5.21550163,21.278325" id="Fill-109"></path>
                        <path d="M26.6601083,21.278325 C26.6601083,22.718325 25.492358,23.886075 24.0523575,23.886075 C22.6123571,23.886075 21.4446067,22.718325 21.4446067,21.278325 C21.4446067,19.838325 22.6123571,18.670575 24.0523575,18.670575 C25.492358,18.670575 26.6601083,19.838325 26.6601083,21.278325" id="Fill-111"></path>
                        <path d="M48.104715,21.278325 C48.104715,22.718325 46.9369647,23.886075 45.4969642,23.886075 C44.0577138,23.886075 42.8899634,22.718325 42.8899634,21.278325 C42.8899634,19.838325 44.0577138,18.670575 45.4969642,18.670575 C46.9369647,18.670575 48.104715,19.838325 48.104715,21.278325" id="Fill-113"></path>
                        <path d="M69.5499967,21.278325 C69.5499967,22.718325 68.3822464,23.886075 66.9414959,23.886075 C65.5022455,23.886075 64.3344951,22.718325 64.3344951,21.278325 C64.3344951,19.838325 65.5022455,18.670575 66.9414959,18.670575 C68.3822464,18.670575 69.5499967,19.838325 69.5499967,21.278325" id="Fill-115"></path>
                        <path d="M90.9946034,21.278325 C90.9946034,22.718325 89.8268531,23.886075 88.3868526,23.886075 C86.9476022,23.886075 85.7798518,22.718325 85.7798518,21.278325 C85.7798518,19.838325 86.9476022,18.670575 88.3868526,18.670575 C89.8268531,18.670575 90.9946034,19.838325 90.9946034,21.278325" id="Fill-117"></path>
                        <path d="M112.439885,21.278325 C112.439885,22.718325 111.272135,23.886075 109.831384,23.886075 C108.392134,23.886075 107.224384,22.718325 107.224384,21.278325 C107.224384,19.838325 108.392134,18.670575 109.831384,18.670575 C111.272135,18.670575 112.439885,19.838325 112.439885,21.278325" id="Fill-119"></path>
                        <path d="M112.465535,2.60775 C112.465535,4.04775 111.297785,5.2155 109.857034,5.2155 C108.417784,5.2155 107.250034,4.04775 107.250034,2.60775 C107.250034,1.16775 108.417784,0 109.857034,0 C111.297785,0 112.465535,1.16775 112.465535,2.60775" id="Fill-121"></path>
                        <path d="M133.910142,2.60775 C133.910142,4.04775 132.742391,5.2155 131.302391,5.2155 C129.862391,5.2155 128.69464,4.04775 128.69464,2.60775 C128.69464,1.16775 129.862391,0 131.302391,0 C132.742391,0 133.910142,1.16775 133.910142,2.60775" id="Fill-123"></path>
                        <path d="M155.354749,2.60775 C155.354749,4.04775 154.186998,5.2155 152.746998,5.2155 C151.307747,5.2155 150.139997,4.04775 150.139997,2.60775 C150.139997,1.16775 151.307747,0 152.746998,0 C154.186998,0 155.354749,1.16775 155.354749,2.60775" id="Fill-125"></path>
                        <path d="M176.80003,2.60775 C176.80003,4.04775 175.63228,5.2155 174.191529,5.2155 C172.752279,5.2155 171.584529,4.04775 171.584529,2.60775 C171.584529,1.16775 172.752279,0 174.191529,0 C175.63228,0 176.80003,1.16775 176.80003,2.60775" id="Fill-127"></path>
                        <path d="M198.244637,2.60775 C198.244637,4.04775 197.076887,5.2155 195.636886,5.2155 C194.197636,5.2155 193.029885,4.04775 193.029885,2.60775 C193.029885,1.16775 194.197636,0 195.636886,0 C197.076887,0 198.244637,1.16775 198.244637,2.60775" id="Fill-129"></path>
                        <path d="M219.689919,2.60775 C219.689919,4.04775 218.522168,5.2155 217.081418,5.2155 C215.642167,5.2155 214.474417,4.04775 214.474417,2.60775 C214.474417,1.16775 215.642167,0 217.081418,0 C218.522168,0 219.689919,1.16775 219.689919,2.60775" id="Fill-131"></path>
                        <path d="M112.465535,21.278325 C112.465535,22.718325 111.297785,23.886075 109.857034,23.886075 C108.417784,23.886075 107.250034,22.718325 107.250034,21.278325 C107.250034,19.838325 108.417784,18.670575 109.857034,18.670575 C111.297785,18.670575 112.465535,19.838325 112.465535,21.278325" id="Fill-133"></path>
                        <path d="M133.910142,21.278325 C133.910142,22.718325 132.742391,23.886075 131.302391,23.886075 C129.862391,23.886075 128.69464,22.718325 128.69464,21.278325 C128.69464,19.838325 129.862391,18.670575 131.302391,18.670575 C132.742391,18.670575 133.910142,19.838325 133.910142,21.278325" id="Fill-135"></path>
                        <path d="M155.354749,21.278325 C155.354749,22.718325 154.186998,23.886075 152.746998,23.886075 C151.307747,23.886075 150.139997,22.718325 150.139997,21.278325 C150.139997,19.838325 151.307747,18.670575 152.746998,18.670575 C154.186998,18.670575 155.354749,19.838325 155.354749,21.278325" id="Fill-137"></path>
                        <path d="M176.80003,21.278325 C176.80003,22.718325 175.63228,23.886075 174.191529,23.886075 C172.752279,23.886075 171.584529,22.718325 171.584529,21.278325 C171.584529,19.838325 172.752279,18.670575 174.191529,18.670575 C175.63228,18.670575 176.80003,19.838325 176.80003,21.278325" id="Fill-139"></path>
                        <path d="M198.244637,21.278325 C198.244637,22.718325 197.076887,23.886075 195.636886,23.886075 C194.197636,23.886075 193.029885,22.718325 193.029885,21.278325 C193.029885,19.838325 194.197636,18.670575 195.636886,18.670575 C197.076887,18.670575 198.244637,19.838325 198.244637,21.278325" id="Fill-141"></path>
                        <path d="M219.689919,21.278325 C219.689919,22.718325 218.522168,23.886075 217.081418,23.886075 C215.642167,23.886075 214.474417,22.718325 214.474417,21.278325 C214.474417,19.838325 215.642167,18.670575 217.081418,18.670575 C218.522168,18.670575 219.689919,19.838325 219.689919,21.278325" id="Fill-143"></path>
                        <path d="M5.21550163,21.1659 C5.21550163,22.6059 4.04775126,23.77365 2.60700081,23.77365 C1.16775036,23.77365 0,22.6059 0,21.1659 C0,19.7259 1.16775036,18.55815 2.60700081,18.55815 C4.04775126,18.55815 5.21550163,19.7259 5.21550163,21.1659" id="Fill-145"></path>
                        <path d="M26.6601083,21.1659 C26.6601083,22.6059 25.492358,23.77365 24.0523575,23.77365 C22.6123571,23.77365 21.4446067,22.6059 21.4446067,21.1659 C21.4446067,19.7259 22.6123571,18.55815 24.0523575,18.55815 C25.492358,18.55815 26.6601083,19.7259 26.6601083,21.1659" id="Fill-147"></path>
                        <path d="M48.104715,21.1659 C48.104715,22.6059 46.9369647,23.77365 45.4969642,23.77365 C44.0577138,23.77365 42.8899634,22.6059 42.8899634,21.1659 C42.8899634,19.7259 44.0577138,18.55815 45.4969642,18.55815 C46.9369647,18.55815 48.104715,19.7259 48.104715,21.1659" id="Fill-149"></path>
                        <path d="M69.5499967,21.1659 C69.5499967,22.6059 68.3822464,23.77365 66.9414959,23.77365 C65.5022455,23.77365 64.3344951,22.6059 64.3344951,21.1659 C64.3344951,19.7259 65.5022455,18.55815 66.9414959,18.55815 C68.3822464,18.55815 69.5499967,19.7259 69.5499967,21.1659" id="Fill-151"></path>
                        <path d="M90.9946034,21.1659 C90.9946034,22.6059 89.8268531,23.77365 88.3868526,23.77365 C86.9476022,23.77365 85.7798518,22.6059 85.7798518,21.1659 C85.7798518,19.7259 86.9476022,18.55815 88.3868526,18.55815 C89.8268531,18.55815 90.9946034,19.7259 90.9946034,21.1659" id="Fill-153"></path>
                        <path d="M112.439885,21.1659 C112.439885,22.6059 111.272135,23.77365 109.831384,23.77365 C108.392134,23.77365 107.224384,22.6059 107.224384,21.1659 C107.224384,19.7259 108.392134,18.55815 109.831384,18.55815 C111.272135,18.55815 112.439885,19.7259 112.439885,21.1659" id="Fill-155"></path>
                        <path d="M5.21550163,39.8364 C5.21550163,41.2764 4.04775126,42.44415 2.60700081,42.44415 C1.16775036,42.44415 0,41.2764 0,39.8364 C0,38.3964 1.16775036,37.22865 2.60700081,37.22865 C4.04775126,37.22865 5.21550163,38.3964 5.21550163,39.8364" id="Fill-157"></path>
                        <path d="M26.6601083,39.8364 C26.6601083,41.2764 25.492358,42.44415 24.0523575,42.44415 C22.6123571,42.44415 21.4446067,41.2764 21.4446067,39.8364 C21.4446067,38.3964 22.6123571,37.22865 24.0523575,37.22865 C25.492358,37.22865 26.6601083,38.3964 26.6601083,39.8364" id="Fill-159"></path>
                        <path d="M48.104715,39.8364 C48.104715,41.2764 46.9369647,42.44415 45.4969642,42.44415 C44.0577138,42.44415 42.8899634,41.2764 42.8899634,39.8364 C42.8899634,38.3964 44.0577138,37.22865 45.4969642,37.22865 C46.9369647,37.22865 48.104715,38.3964 48.104715,39.8364" id="Fill-161"></path>
                        <path d="M69.5499967,39.8364 C69.5499967,41.2764 68.3822464,42.44415 66.9414959,42.44415 C65.5022455,42.44415 64.3344951,41.2764 64.3344951,39.8364 C64.3344951,38.3964 65.5022455,37.22865 66.9414959,37.22865 C68.3822464,37.22865 69.5499967,38.3964 69.5499967,39.8364" id="Fill-163"></path>
                        <path d="M90.9946034,39.8364 C90.9946034,41.2764 89.8268531,42.44415 88.3868526,42.44415 C86.9476022,42.44415 85.7798518,41.2764 85.7798518,39.8364 C85.7798518,38.3964 86.9476022,37.22865 88.3868526,37.22865 C89.8268531,37.22865 90.9946034,38.3964 90.9946034,39.8364" id="Fill-165"></path>
                        <path d="M112.439885,39.8364 C112.439885,41.2764 111.272135,42.44415 109.831384,42.44415 C108.392134,42.44415 107.224384,41.2764 107.224384,39.8364 C107.224384,38.3964 108.392134,37.22865 109.831384,37.22865 C111.272135,37.22865 112.439885,38.3964 112.439885,39.8364" id="Fill-167"></path>
                        <path d="M112.465535,21.1659 C112.465535,22.6059 111.297785,23.77365 109.857034,23.77365 C108.417784,23.77365 107.250034,22.6059 107.250034,21.1659 C107.250034,19.7259 108.417784,18.55815 109.857034,18.55815 C111.297785,18.55815 112.465535,19.7259 112.465535,21.1659" id="Fill-169"></path>
                        <path d="M133.910142,21.1659 C133.910142,22.6059 132.742391,23.77365 131.302391,23.77365 C129.862391,23.77365 128.69464,22.6059 128.69464,21.1659 C128.69464,19.7259 129.862391,18.55815 131.302391,18.55815 C132.742391,18.55815 133.910142,19.7259 133.910142,21.1659" id="Fill-171"></path>
                        <path d="M155.354749,21.1659 C155.354749,22.6059 154.186998,23.77365 152.746998,23.77365 C151.307747,23.77365 150.139997,22.6059 150.139997,21.1659 C150.139997,19.7259 151.307747,18.55815 152.746998,18.55815 C154.186998,18.55815 155.354749,19.7259 155.354749,21.1659" id="Fill-173"></path>
                        <path d="M176.80003,21.1659 C176.80003,22.6059 175.63228,23.77365 174.191529,23.77365 C172.752279,23.77365 171.584529,22.6059 171.584529,21.1659 C171.584529,19.7259 172.752279,18.55815 174.191529,18.55815 C175.63228,18.55815 176.80003,19.7259 176.80003,21.1659" id="Fill-175"></path>
                        <path d="M198.244637,21.1659 C198.244637,22.6059 197.076887,23.77365 195.636886,23.77365 C194.197636,23.77365 193.029885,22.6059 193.029885,21.1659 C193.029885,19.7259 194.197636,18.55815 195.636886,18.55815 C197.076887,18.55815 198.244637,19.7259 198.244637,21.1659" id="Fill-177"></path>
                        <path d="M219.689919,21.1659 C219.689919,22.6059 218.522168,23.77365 217.081418,23.77365 C215.642167,23.77365 214.474417,22.6059 214.474417,21.1659 C214.474417,19.7259 215.642167,18.55815 217.081418,18.55815 C218.522168,18.55815 219.689919,19.7259 219.689919,21.1659" id="Fill-179"></path>
                        <path d="M112.465535,39.8364 C112.465535,41.2764 111.297785,42.44415 109.857034,42.44415 C108.417784,42.44415 107.250034,41.2764 107.250034,39.8364 C107.250034,38.3964 108.417784,37.22865 109.857034,37.22865 C111.297785,37.22865 112.465535,38.3964 112.465535,39.8364" id="Fill-181"></path>
                        <path d="M133.910142,39.8364 C133.910142,41.2764 132.742391,42.44415 131.302391,42.44415 C129.862391,42.44415 128.69464,41.2764 128.69464,39.8364 C128.69464,38.3964 129.862391,37.22865 131.302391,37.22865 C132.742391,37.22865 133.910142,38.3964 133.910142,39.8364" id="Fill-183"></path>
                        <path d="M155.354749,39.8364 C155.354749,41.2764 154.186998,42.44415 152.746998,42.44415 C151.307747,42.44415 150.139997,41.2764 150.139997,39.8364 C150.139997,38.3964 151.307747,37.22865 152.746998,37.22865 C154.186998,37.22865 155.354749,38.3964 155.354749,39.8364" id="Fill-185"></path>
                        <path d="M176.80003,39.8364 C176.80003,41.2764 175.63228,42.44415 174.191529,42.44415 C172.752279,42.44415 171.584529,41.2764 171.584529,39.8364 C171.584529,38.3964 172.752279,37.22865 174.191529,37.22865 C175.63228,37.22865 176.80003,38.3964 176.80003,39.8364" id="Fill-187"></path>
                        <path d="M198.244637,39.8364 C198.244637,41.2764 197.076887,42.44415 195.636886,42.44415 C194.197636,42.44415 193.029885,41.2764 193.029885,39.8364 C193.029885,38.3964 194.197636,37.22865 195.636886,37.22865 C197.076887,37.22865 198.244637,38.3964 198.244637,39.8364" id="Fill-189"></path>
                        <path d="M219.689919,39.8364 C219.689919,41.2764 218.522168,42.44415 217.081418,42.44415 C215.642167,42.44415 214.474417,41.2764 214.474417,39.8364 C214.474417,38.3964 215.642167,37.22865 217.081418,37.22865 C218.522168,37.22865 219.689919,38.3964 219.689919,39.8364" id="Fill-191"></path>
                    </g>
                    <g id="Group-2-Copy" transform="translate(0.000000, 770.000000)">
                        <path d="M5.21550163,2.60775 C5.21550163,4.04775 4.04775126,5.2155 2.60700081,5.2155 C1.16775036,5.2155 0,4.04775 0,2.60775 C0,1.16775 1.16775036,0 2.60700081,0 C4.04775126,0 5.21550163,1.16775 5.21550163,2.60775" id="Fill-97"></path>
                        <path d="M26.6601083,2.60775 C26.6601083,4.04775 25.492358,5.2155 24.0523575,5.2155 C22.6123571,5.2155 21.4446067,4.04775 21.4446067,2.60775 C21.4446067,1.16775 22.6123571,0 24.0523575,0 C25.492358,0 26.6601083,1.16775 26.6601083,2.60775" id="Fill-99"></path>
                        <path d="M48.104715,2.60775 C48.104715,4.04775 46.9369647,5.2155 45.4969642,5.2155 C44.0577138,5.2155 42.8899634,4.04775 42.8899634,2.60775 C42.8899634,1.16775 44.0577138,0 45.4969642,0 C46.9369647,0 48.104715,1.16775 48.104715,2.60775" id="Fill-101"></path>
                        <path d="M69.5499967,2.60775 C69.5499967,4.04775 68.3822464,5.2155 66.9414959,5.2155 C65.5022455,5.2155 64.3344951,4.04775 64.3344951,2.60775 C64.3344951,1.16775 65.5022455,0 66.9414959,0 C68.3822464,0 69.5499967,1.16775 69.5499967,2.60775" id="Fill-103"></path>
                        <path d="M90.9946034,2.60775 C90.9946034,4.04775 89.8268531,5.2155 88.3868526,5.2155 C86.9476022,5.2155 85.7798518,4.04775 85.7798518,2.60775 C85.7798518,1.16775 86.9476022,0 88.3868526,0 C89.8268531,0 90.9946034,1.16775 90.9946034,2.60775" id="Fill-105"></path>
                        <path d="M112.439885,2.60775 C112.439885,4.04775 111.272135,5.2155 109.831384,5.2155 C108.392134,5.2155 107.224384,4.04775 107.224384,2.60775 C107.224384,1.16775 108.392134,0 109.831384,0 C111.272135,0 112.439885,1.16775 112.439885,2.60775" id="Fill-107"></path>
                        <path d="M5.21550163,21.278325 C5.21550163,22.718325 4.04775126,23.886075 2.60700081,23.886075 C1.16775036,23.886075 0,22.718325 0,21.278325 C0,19.838325 1.16775036,18.670575 2.60700081,18.670575 C4.04775126,18.670575 5.21550163,19.838325 5.21550163,21.278325" id="Fill-109"></path>
                        <path d="M26.6601083,21.278325 C26.6601083,22.718325 25.492358,23.886075 24.0523575,23.886075 C22.6123571,23.886075 21.4446067,22.718325 21.4446067,21.278325 C21.4446067,19.838325 22.6123571,18.670575 24.0523575,18.670575 C25.492358,18.670575 26.6601083,19.838325 26.6601083,21.278325" id="Fill-111"></path>
                        <path d="M48.104715,21.278325 C48.104715,22.718325 46.9369647,23.886075 45.4969642,23.886075 C44.0577138,23.886075 42.8899634,22.718325 42.8899634,21.278325 C42.8899634,19.838325 44.0577138,18.670575 45.4969642,18.670575 C46.9369647,18.670575 48.104715,19.838325 48.104715,21.278325" id="Fill-113"></path>
                        <path d="M69.5499967,21.278325 C69.5499967,22.718325 68.3822464,23.886075 66.9414959,23.886075 C65.5022455,23.886075 64.3344951,22.718325 64.3344951,21.278325 C64.3344951,19.838325 65.5022455,18.670575 66.9414959,18.670575 C68.3822464,18.670575 69.5499967,19.838325 69.5499967,21.278325" id="Fill-115"></path>
                        <path d="M90.9946034,21.278325 C90.9946034,22.718325 89.8268531,23.886075 88.3868526,23.886075 C86.9476022,23.886075 85.7798518,22.718325 85.7798518,21.278325 C85.7798518,19.838325 86.9476022,18.670575 88.3868526,18.670575 C89.8268531,18.670575 90.9946034,19.838325 90.9946034,21.278325" id="Fill-117"></path>
                        <path d="M112.439885,21.278325 C112.439885,22.718325 111.272135,23.886075 109.831384,23.886075 C108.392134,23.886075 107.224384,22.718325 107.224384,21.278325 C107.224384,19.838325 108.392134,18.670575 109.831384,18.670575 C111.272135,18.670575 112.439885,19.838325 112.439885,21.278325" id="Fill-119"></path>
                        <path d="M112.465535,2.60775 C112.465535,4.04775 111.297785,5.2155 109.857034,5.2155 C108.417784,5.2155 107.250034,4.04775 107.250034,2.60775 C107.250034,1.16775 108.417784,0 109.857034,0 C111.297785,0 112.465535,1.16775 112.465535,2.60775" id="Fill-121"></path>
                        <path d="M133.910142,2.60775 C133.910142,4.04775 132.742391,5.2155 131.302391,5.2155 C129.862391,5.2155 128.69464,4.04775 128.69464,2.60775 C128.69464,1.16775 129.862391,0 131.302391,0 C132.742391,0 133.910142,1.16775 133.910142,2.60775" id="Fill-123"></path>
                        <path d="M155.354749,2.60775 C155.354749,4.04775 154.186998,5.2155 152.746998,5.2155 C151.307747,5.2155 150.139997,4.04775 150.139997,2.60775 C150.139997,1.16775 151.307747,0 152.746998,0 C154.186998,0 155.354749,1.16775 155.354749,2.60775" id="Fill-125"></path>
                        <path d="M176.80003,2.60775 C176.80003,4.04775 175.63228,5.2155 174.191529,5.2155 C172.752279,5.2155 171.584529,4.04775 171.584529,2.60775 C171.584529,1.16775 172.752279,0 174.191529,0 C175.63228,0 176.80003,1.16775 176.80003,2.60775" id="Fill-127"></path>
                        <path d="M198.244637,2.60775 C198.244637,4.04775 197.076887,5.2155 195.636886,5.2155 C194.197636,5.2155 193.029885,4.04775 193.029885,2.60775 C193.029885,1.16775 194.197636,0 195.636886,0 C197.076887,0 198.244637,1.16775 198.244637,2.60775" id="Fill-129"></path>
                        <path d="M219.689919,2.60775 C219.689919,4.04775 218.522168,5.2155 217.081418,5.2155 C215.642167,5.2155 214.474417,4.04775 214.474417,2.60775 C214.474417,1.16775 215.642167,0 217.081418,0 C218.522168,0 219.689919,1.16775 219.689919,2.60775" id="Fill-131"></path>
                        <path d="M112.465535,21.278325 C112.465535,22.718325 111.297785,23.886075 109.857034,23.886075 C108.417784,23.886075 107.250034,22.718325 107.250034,21.278325 C107.250034,19.838325 108.417784,18.670575 109.857034,18.670575 C111.297785,18.670575 112.465535,19.838325 112.465535,21.278325" id="Fill-133"></path>
                        <path d="M133.910142,21.278325 C133.910142,22.718325 132.742391,23.886075 131.302391,23.886075 C129.862391,23.886075 128.69464,22.718325 128.69464,21.278325 C128.69464,19.838325 129.862391,18.670575 131.302391,18.670575 C132.742391,18.670575 133.910142,19.838325 133.910142,21.278325" id="Fill-135"></path>
                        <path d="M155.354749,21.278325 C155.354749,22.718325 154.186998,23.886075 152.746998,23.886075 C151.307747,23.886075 150.139997,22.718325 150.139997,21.278325 C150.139997,19.838325 151.307747,18.670575 152.746998,18.670575 C154.186998,18.670575 155.354749,19.838325 155.354749,21.278325" id="Fill-137"></path>
                        <path d="M176.80003,21.278325 C176.80003,22.718325 175.63228,23.886075 174.191529,23.886075 C172.752279,23.886075 171.584529,22.718325 171.584529,21.278325 C171.584529,19.838325 172.752279,18.670575 174.191529,18.670575 C175.63228,18.670575 176.80003,19.838325 176.80003,21.278325" id="Fill-139"></path>
                        <path d="M198.244637,21.278325 C198.244637,22.718325 197.076887,23.886075 195.636886,23.886075 C194.197636,23.886075 193.029885,22.718325 193.029885,21.278325 C193.029885,19.838325 194.197636,18.670575 195.636886,18.670575 C197.076887,18.670575 198.244637,19.838325 198.244637,21.278325" id="Fill-141"></path>
                        <path d="M219.689919,21.278325 C219.689919,22.718325 218.522168,23.886075 217.081418,23.886075 C215.642167,23.886075 214.474417,22.718325 214.474417,21.278325 C214.474417,19.838325 215.642167,18.670575 217.081418,18.670575 C218.522168,18.670575 219.689919,19.838325 219.689919,21.278325" id="Fill-143"></path>
                        <path d="M5.21550163,21.1659 C5.21550163,22.6059 4.04775126,23.77365 2.60700081,23.77365 C1.16775036,23.77365 0,22.6059 0,21.1659 C0,19.7259 1.16775036,18.55815 2.60700081,18.55815 C4.04775126,18.55815 5.21550163,19.7259 5.21550163,21.1659" id="Fill-145"></path>
                        <path d="M26.6601083,21.1659 C26.6601083,22.6059 25.492358,23.77365 24.0523575,23.77365 C22.6123571,23.77365 21.4446067,22.6059 21.4446067,21.1659 C21.4446067,19.7259 22.6123571,18.55815 24.0523575,18.55815 C25.492358,18.55815 26.6601083,19.7259 26.6601083,21.1659" id="Fill-147"></path>
                        <path d="M48.104715,21.1659 C48.104715,22.6059 46.9369647,23.77365 45.4969642,23.77365 C44.0577138,23.77365 42.8899634,22.6059 42.8899634,21.1659 C42.8899634,19.7259 44.0577138,18.55815 45.4969642,18.55815 C46.9369647,18.55815 48.104715,19.7259 48.104715,21.1659" id="Fill-149"></path>
                        <path d="M69.5499967,21.1659 C69.5499967,22.6059 68.3822464,23.77365 66.9414959,23.77365 C65.5022455,23.77365 64.3344951,22.6059 64.3344951,21.1659 C64.3344951,19.7259 65.5022455,18.55815 66.9414959,18.55815 C68.3822464,18.55815 69.5499967,19.7259 69.5499967,21.1659" id="Fill-151"></path>
                        <path d="M90.9946034,21.1659 C90.9946034,22.6059 89.8268531,23.77365 88.3868526,23.77365 C86.9476022,23.77365 85.7798518,22.6059 85.7798518,21.1659 C85.7798518,19.7259 86.9476022,18.55815 88.3868526,18.55815 C89.8268531,18.55815 90.9946034,19.7259 90.9946034,21.1659" id="Fill-153"></path>
                        <path d="M112.439885,21.1659 C112.439885,22.6059 111.272135,23.77365 109.831384,23.77365 C108.392134,23.77365 107.224384,22.6059 107.224384,21.1659 C107.224384,19.7259 108.392134,18.55815 109.831384,18.55815 C111.272135,18.55815 112.439885,19.7259 112.439885,21.1659" id="Fill-155"></path>
                        <path d="M5.21550163,39.8364 C5.21550163,41.2764 4.04775126,42.44415 2.60700081,42.44415 C1.16775036,42.44415 0,41.2764 0,39.8364 C0,38.3964 1.16775036,37.22865 2.60700081,37.22865 C4.04775126,37.22865 5.21550163,38.3964 5.21550163,39.8364" id="Fill-157"></path>
                        <path d="M26.6601083,39.8364 C26.6601083,41.2764 25.492358,42.44415 24.0523575,42.44415 C22.6123571,42.44415 21.4446067,41.2764 21.4446067,39.8364 C21.4446067,38.3964 22.6123571,37.22865 24.0523575,37.22865 C25.492358,37.22865 26.6601083,38.3964 26.6601083,39.8364" id="Fill-159"></path>
                        <path d="M48.104715,39.8364 C48.104715,41.2764 46.9369647,42.44415 45.4969642,42.44415 C44.0577138,42.44415 42.8899634,41.2764 42.8899634,39.8364 C42.8899634,38.3964 44.0577138,37.22865 45.4969642,37.22865 C46.9369647,37.22865 48.104715,38.3964 48.104715,39.8364" id="Fill-161"></path>
                        <path d="M69.5499967,39.8364 C69.5499967,41.2764 68.3822464,42.44415 66.9414959,42.44415 C65.5022455,42.44415 64.3344951,41.2764 64.3344951,39.8364 C64.3344951,38.3964 65.5022455,37.22865 66.9414959,37.22865 C68.3822464,37.22865 69.5499967,38.3964 69.5499967,39.8364" id="Fill-163"></path>
                        <path d="M90.9946034,39.8364 C90.9946034,41.2764 89.8268531,42.44415 88.3868526,42.44415 C86.9476022,42.44415 85.7798518,41.2764 85.7798518,39.8364 C85.7798518,38.3964 86.9476022,37.22865 88.3868526,37.22865 C89.8268531,37.22865 90.9946034,38.3964 90.9946034,39.8364" id="Fill-165"></path>
                        <path d="M112.439885,39.8364 C112.439885,41.2764 111.272135,42.44415 109.831384,42.44415 C108.392134,42.44415 107.224384,41.2764 107.224384,39.8364 C107.224384,38.3964 108.392134,37.22865 109.831384,37.22865 C111.272135,37.22865 112.439885,38.3964 112.439885,39.8364" id="Fill-167"></path>
                        <path d="M112.465535,21.1659 C112.465535,22.6059 111.297785,23.77365 109.857034,23.77365 C108.417784,23.77365 107.250034,22.6059 107.250034,21.1659 C107.250034,19.7259 108.417784,18.55815 109.857034,18.55815 C111.297785,18.55815 112.465535,19.7259 112.465535,21.1659" id="Fill-169"></path>
                        <path d="M133.910142,21.1659 C133.910142,22.6059 132.742391,23.77365 131.302391,23.77365 C129.862391,23.77365 128.69464,22.6059 128.69464,21.1659 C128.69464,19.7259 129.862391,18.55815 131.302391,18.55815 C132.742391,18.55815 133.910142,19.7259 133.910142,21.1659" id="Fill-171"></path>
                        <path d="M155.354749,21.1659 C155.354749,22.6059 154.186998,23.77365 152.746998,23.77365 C151.307747,23.77365 150.139997,22.6059 150.139997,21.1659 C150.139997,19.7259 151.307747,18.55815 152.746998,18.55815 C154.186998,18.55815 155.354749,19.7259 155.354749,21.1659" id="Fill-173"></path>
                        <path d="M176.80003,21.1659 C176.80003,22.6059 175.63228,23.77365 174.191529,23.77365 C172.752279,23.77365 171.584529,22.6059 171.584529,21.1659 C171.584529,19.7259 172.752279,18.55815 174.191529,18.55815 C175.63228,18.55815 176.80003,19.7259 176.80003,21.1659" id="Fill-175"></path>
                        <path d="M198.244637,21.1659 C198.244637,22.6059 197.076887,23.77365 195.636886,23.77365 C194.197636,23.77365 193.029885,22.6059 193.029885,21.1659 C193.029885,19.7259 194.197636,18.55815 195.636886,18.55815 C197.076887,18.55815 198.244637,19.7259 198.244637,21.1659" id="Fill-177"></path>
                        <path d="M219.689919,21.1659 C219.689919,22.6059 218.522168,23.77365 217.081418,23.77365 C215.642167,23.77365 214.474417,22.6059 214.474417,21.1659 C214.474417,19.7259 215.642167,18.55815 217.081418,18.55815 C218.522168,18.55815 219.689919,19.7259 219.689919,21.1659" id="Fill-179"></path>
                        <path d="M112.465535,39.8364 C112.465535,41.2764 111.297785,42.44415 109.857034,42.44415 C108.417784,42.44415 107.250034,41.2764 107.250034,39.8364 C107.250034,38.3964 108.417784,37.22865 109.857034,37.22865 C111.297785,37.22865 112.465535,38.3964 112.465535,39.8364" id="Fill-181"></path>
                        <path d="M133.910142,39.8364 C133.910142,41.2764 132.742391,42.44415 131.302391,42.44415 C129.862391,42.44415 128.69464,41.2764 128.69464,39.8364 C128.69464,38.3964 129.862391,37.22865 131.302391,37.22865 C132.742391,37.22865 133.910142,38.3964 133.910142,39.8364" id="Fill-183"></path>
                        <path d="M155.354749,39.8364 C155.354749,41.2764 154.186998,42.44415 152.746998,42.44415 C151.307747,42.44415 150.139997,41.2764 150.139997,39.8364 C150.139997,38.3964 151.307747,37.22865 152.746998,37.22865 C154.186998,37.22865 155.354749,38.3964 155.354749,39.8364" id="Fill-185"></path>
                        <path d="M176.80003,39.8364 C176.80003,41.2764 175.63228,42.44415 174.191529,42.44415 C172.752279,42.44415 171.584529,41.2764 171.584529,39.8364 C171.584529,38.3964 172.752279,37.22865 174.191529,37.22865 C175.63228,37.22865 176.80003,38.3964 176.80003,39.8364" id="Fill-187"></path>
                        <path d="M198.244637,39.8364 C198.244637,41.2764 197.076887,42.44415 195.636886,42.44415 C194.197636,42.44415 193.029885,41.2764 193.029885,39.8364 C193.029885,38.3964 194.197636,37.22865 195.636886,37.22865 C197.076887,37.22865 198.244637,38.3964 198.244637,39.8364" id="Fill-189"></path>
                        <path d="M219.689919,39.8364 C219.689919,41.2764 218.522168,42.44415 217.081418,42.44415 C215.642167,42.44415 214.474417,41.2764 214.474417,39.8364 C214.474417,38.3964 215.642167,37.22865 217.081418,37.22865 C218.522168,37.22865 219.689919,38.3964 219.689919,39.8364" id="Fill-191"></path>
                    </g>
                    <path d="M1366.37672,484.688375 L1366.37672,484.688375 C1372.05047,484.688375 1376.65097,489.288875 1376.65097,494.962625 C1376.65097,500.637875 1372.05047,505.236875 1366.37672,505.236875 C1360.70222,505.236875 1356.10246,500.637875 1356.10246,494.962625 C1356.10246,489.288875 1360.70222,484.688375 1366.37672,484.688375" id="Fill-289"></path>
                    <path d="M99.9907484,277.7406 L99.9907484,277.7406 C105.66525,277.7406 110.265002,282.34035 110.265002,288.01485 C110.265002,293.68935 105.66525,298.2891 99.9907484,298.2891 C94.3162467,298.2891 89.7164952,293.68935 89.7164952,288.01485 C89.7164952,282.34035 94.3162467,277.7406 99.9907484,277.7406" id="Fill-291"></path>
                    <path d="M140.133314,200.179275 L140.133314,200.179275 C145.807816,200.179275 150.407568,204.779025 150.407568,210.453525 C150.407568,216.128025 145.807816,220.727775 140.133314,220.727775 C134.459563,220.727775 129.859061,216.128025 129.859061,210.453525 C129.859061,204.779025 134.459563,200.179275 140.133314,200.179275" id="Fill-293"></path>
                </g>
                <polygon id="Fill-309" points="336.985852 200.43445 336.985852 205.48195 331.990851 205.48195"></polygon>
                <polygon id="Fill-329" points="1411.78674 406.15345 1411.78674 411.20095 1406.79174 411.20095"></polygon>
                <path d="M1227.45296,1131.2462 C1227.45296,986.5862 1344.71549,869.3237 1489.37554,869.3237 L1489.37554,779.9762 C1295.38048,779.9762 1138.10543,937.2437 1138.10543,1131.2462 L1227.45296,1131.2462 Z" id="Fill-351"></path>
                <path d="M101.838054,524.1987 C84.0105481,524.1987 66.4905427,525.5262 49.3755373,528.0987 L49.3755373,618.8037 C66.3255426,615.3537 83.8680481,613.5462 101.838054,613.5462 C246.490599,613.5462 363.760636,730.8087 363.760636,875.4687 C363.760636,1008.7212 264.243104,1118.7387 135.483064,1135.2462 L338.283128,1135.2462 C408.82815,1071.0012 453.100663,978.4062 453.100663,875.4687 C453.100663,681.4662 295.833114,524.1987 101.838054,524.1987" id="Fill-355"></path>
            </g>
        </g>
    </g>
</svg>